<svg width="10" height="10" viewBox="0 0 10 10" fill="none" xmlns="http://www.w3.org/2000/svg">
<path d="M1.25001 7.91665H8.75001C8.82594 7.91641 8.90037 7.89547 8.96529 7.85608C9.0302 7.81668 9.08315 7.76033 9.11842 7.69309C9.15369 7.62584 9.16996 7.55025 9.16546 7.47445C9.16097 7.39865 9.13589 7.32551 9.09292 7.2629L5.34292 1.84623C5.18751 1.62165 4.81334 1.62165 4.65751 1.84623L0.907505 7.2629C0.864099 7.32538 0.838644 7.39855 0.833907 7.47448C0.82917 7.55041 0.845332 7.62618 0.880636 7.69357C0.91594 7.76096 0.969037 7.81738 1.03416 7.85671C1.09928 7.89604 1.17393 7.91677 1.25001 7.91665Z" fill="black"/>
</svg>
