<svg width="10" height="10" viewBox="0 0 10 10" fill="none" xmlns="http://www.w3.org/2000/svg">
<path d="M8.74999 2.08335H1.24999C1.17406 2.08359 1.09963 2.10453 1.03471 2.14392C0.969796 2.18332 0.916853 2.23967 0.88158 2.30691C0.846308 2.37416 0.830043 2.44975 0.834536 2.52555C0.839028 2.60135 0.864109 2.67449 0.907079 2.7371L4.65708 8.15377C4.81249 8.37835 5.18666 8.37835 5.34249 8.15377L9.09249 2.7371C9.1359 2.67462 9.16136 2.60145 9.16609 2.52552C9.17083 2.44959 9.15467 2.37382 9.11936 2.30643C9.08406 2.23904 9.03096 2.18262 8.96584 2.14329C8.90072 2.10396 8.82607 2.08323 8.74999 2.08335Z" fill="black"/>
</svg>
